<svg xmlns="http://www.w3.org/2000/svg" xmlns:svg="http://www.w3.org/2000/svg" id="Logo_FIXED" width="64" height="64" data-name="Logo — FIXED" version="1.1" viewBox="0 0 64 64"><metadata id="metadata15"/><defs id="defs4"><style id="style2">.cls-2{fill:#1da1f2}</style></defs><title id="title6">Twitter_Logo_Blue</title><path id="path10" d="m 20.12672,58.001656 c 24.15104,0 37.36064,-20.00896 37.36064,-37.36064 0,-0.56832 0,-1.13408 -0.0384,-1.69728 A 26.71616,26.71616 0 0 0 64,12.146936 26.20928,26.20928 0 0 1 56.45824,14.212856 13.17632,13.17632 0 0 0 62.23104,6.9501361 26.31424,26.31424 0 0 1 53.89312,10.137336 13.14304,13.14304 0 0 0 31.51616,22.113016 37.27872,37.27872 0 0 1 4.4544,8.3939761 13.14048,13.14048 0 0 0 8.51968,25.922296 13.03296,13.03296 0 0 1 2.56,24.278776 c 0,0.0538 0,0.11008 0,0.1664 a 13.13536,13.13536 0 0 0 10.5344,12.87168 13.10976,13.10976 0 0 1 -5.92896,0.22528 13.1456,13.1456 0 0 0 12.26752,9.11872 26.34752,26.34752 0 0 1 -16.3072,5.632 A 26.72896,26.72896 0 0 1 0,52.103416 a 37.17376,37.17376 0 0 0 20.12672,5.888" class="cls-2" style="fill:#1da1f2;stroke-width:.25600001"/></svg>